<svg xmlns="http://www.w3.org/2000/svg" height="800.0" width="600.0">
<path d="M215 159 L212 159 L209 160 L207 162 L206 163 L203 165 L200 168 L199 169 L196 173 L193 177 L192 182 L190 185 L190 188 L190 192 L191 196 L194 203 L197 208 L201 212 L204 215 L207 218 L210 219 L212 220 L214 220 L217 220 L220 218 L222 216 L224 214 L225 211 L226 208 L227 202 L228 197 L228 189 L227 185 L226 180 L226 178 L225 175 L224 172 L223 170 L223 168 L222 165 L221 164 L221 163 L220 162 L219 160 L218 160 L218 159 L218 158 L217 158 L216 157 L216 156 L216 155 L217 160 L218 162 L221 168 L223 172 L224 175 L226 179 L229 183 L231 186 L233 189 L236 192 L239 194 L242 197 L245 198 L249 201 L256 205 L263 208 L268 211 L271 212 L272 212 " fill="none" stroke="#c65ebbff" stroke-width="5"/>
</svg>