<svg xmlns="http://www.w3.org/2000/svg" height="800.0" width="600.0">
<path d="M155 226 L155 226 L156 229 L156 231 L156 234 L156 235 L156 238 L158 242 L160 245 L163 251 L164 256 L166 258 L169 263 L176 272 L182 278 L186 282 L190 285 L193 287 L197 288 L202 289 L206 289 L211 287 L214 283 L217 280 L219 276 L223 272 L226 268 L230 263 L237 249 L243 234 L246 222 L252 209 L254 202 L257 196 L260 187 L265 178 L271 166 L277 160 L285 150 L289 146 L292 143 L293 142 L295 142 L301 147 L305 151 L312 158 L323 172 L329 179 L341 196 L352 214 L356 225 L360 241 L361 253 L364 276 L365 300 L367 332 L369 362 L374 390 L378 406 L381 413 L383 417 L386 421 L392 429 L396 434 L402 437 L417 427 L421 424 L430 412 L440 396 L445 389 L451 377 L458 365 L461 354 L464 340 L465 323 L467 308 L468 291 L469 276 L471 262 L472 255 L472 248 L472 241 L472 232 L473 225 L474 220 L475 214 L477 210 L478 204 L479 202 L479 201 L479 199 L480 197 L480 195 L481 192 L484 187 L487 183 L489 180 L490 180 L491 178 L493 177 L494 176 L495 176 L495 177 L497 177 L498 178 L500 180 L508 183 L511 183 L513 184 L518 185 L519 186 L520 186 L521 188 L522 188 L526 192 L530 199 L537 205 L545 216 L547 218 L548 220 L550 222 L556 231 L559 237 L561 242 L563 246 L567 254 L579 287 L588 314 L593 331 L595 345 L595 352 L595 356 L595 364 L595 377 L595 396 L595 406 L595 407 L594 402 L593 398 " fill="none" stroke="#46321bff" stroke-width="5"/>
</svg>