<svg xmlns="http://www.w3.org/2000/svg" height="800.0" width="600.0">
<path d="M322 149 L321 150 L321 152 L320 153 L320 154 L320 156 L320 157 L320 159 L319 160 L319 161 L319 163 L320 164 L320 166 L320 167 L320 169 L320 170 L321 171 L321 173 L322 174 L323 175 L323 176 L324 178 L324 179 L325 180 L326 182 L327 183 L328 184 L329 185 L330 186 L331 187 L332 188 L333 189 L334 190 L335 191 L336 192 L337 193 L338 194 L339 194 L340 195 L342 196 L343 197 L344 197 L345 198 L347 199 L348 200 L349 200 L350 201 L351 202 L353 203 L354 203 L355 204 L356 205 L357 206 L359 206 L360 207 L361 208 L362 209 L364 209 L365 210 L366 211 L367 211 L369 212 L370 213 L371 213 L372 214 L374 215 L375 215 L376 216 L377 217 L379 217 L380 218 L381 219 L383 219 L384 220 L385 220 L386 221 L388 222 L389 222 L390 223 L392 223 L393 224 L394 225 L396 225 L397 226 L398 226 L399 227 L401 227 L402 228 L403 229 L405 229 L406 229 L407 230 L409 230 L410 231 L412 231 L413 232 L414 232 L416 233 L417 233 L418 233 L420 234 L421 234 L422 235 L424 235 L425 236 L426 236 L428 236 L429 237 L431 237 L432 237 L433 237 L435 238 L436 238 L438 238 L439 239 L440 239 L442 239 L443 239 L445 240 L446 240 L448 240 L449 240 L450 240 L452 240 L453 240 L455 240 L456 240 L458 240 L459 240 L460 240 L462 240 L463 240 L465 240 L466 239 L467 239 L468 238 L469 237 L470 236 L470 234 L471 233 L471 231 L470 230 L470 229 L469 228 " fill="none" stroke="#f4c508ff" stroke-width="10" pen="PEN"/>
<path d="M414 206 L413 207 L412 208 L411 209 L410 211 L410 212 L409 213 L408 214 L407 215 L406 216 L405 217 L404 218 L403 219 L402 220 L401 221 L400 222 L399 223 L398 224 L397 225 L396 226 L395 227 L394 228 L393 229 L392 230 L390 231 L389 232 L389 233 L388 234 L387 235 L386 236 L385 237 L384 238 L383 239 L382 240 L381 241 L380 242 L379 243 L377 244 L376 245 L375 246 L374 247 L373 248 L372 249 L371 250 L370 251 L369 252 L369 253 L368 254 L367 256 L367 257 L367 258 L366 260 L365 261 L365 262 L365 264 L364 265 L364 267 L364 268 L364 269 " fill="none" stroke="#5162aaff" stroke-width="10" pen="PEN"/>
<path d="M488 329 L485 329 L481 329 L478 329 L475 329 L472 329 L468 328 L465 328 L462 327 L459 327 L455 327 L452 326 L449 325 L446 324 L443 323 L440 322 L436 321 L433 320 L430 319 L427 318 L424 317 L421 316 L418 315 L415 314 L412 313 L409 311 L405 310 L402 309 L399 307 L396 306 L393 305 L390 303 L387 302 L384 301 L381 300 L378 298 L375 297 L372 296 L369 295 L366 293 L363 292 L360 291 L357 289 L354 288 L351 286 L348 285 L345 283 L342 282 L339 281 L336 279 L334 278 L331 276 L328 274 L325 273 L322 271 L319 270 L316 268 L313 267 L311 265 L308 263 L305 261 L302 259 L300 258 L297 256 L295 253 L292 251 L290 249 L287 247 L285 245 L283 242 L281 239 L279 236 L278 234 L276 231 L275 228 L274 225 L273 222 L272 218 L272 215 L271 212 " fill="none" stroke="#62aba6ff" stroke-width="23" pen="PEN"/>
<path d="M352 205 L353 208 L354 211 L355 214 L356 217 L357 221 L358 224 L359 227 L360 230 L361 233 L363 236 L364 239 L365 242 L366 245 L367 248 L369 251 L370 254 L371 258 L372 261 L373 264 L374 267 L375 270 L376 273 L377 276 L378 280 L378 283 L380 286 L381 289 L382 292 L383 295 L384 298 L385 301 L386 304 L388 307 L389 310 L390 313 L391 316 L392 320 L393 323 L395 326 L395 329 L396 332 " fill="none" stroke="#c5c0bdff" stroke-width="23" pen="PEN"/>
<path d="M464 314 L461 316 L458 317 L455 319 L452 320 L449 322 L447 323 L444 325 L442 327 L439 330 L436 331 L434 333 L431 335 L428 337 L426 339 L423 341 L420 343 L417 344 L415 346 L412 348 L409 350 L407 352 L404 354 L401 356 L398 358 L396 359 L393 361 L390 363 L388 365 L385 367 L382 369 L380 371 L377 372 L374 374 L371 376 L369 378 L366 379 L363 381 L360 382 L357 383 L354 385 L351 386 L348 387 L344 388 L341 389 L338 389 L335 388 L332 387 L329 385 L326 383 L323 382 L321 380 L318 378 L316 376 L313 373 L311 371 L309 369 L306 367 L304 364 L301 362 L299 360 L296 358 L294 355 L292 353 L289 351 L287 349 L285 346 L282 344 L280 342 L278 339 L276 337 L274 334 L272 331 L270 329 L268 326 L266 324 L264 321 L262 318 L260 316 L258 313 L257 310 L255 307 L253 304 L252 301 L250 298 L249 296 L247 293 L246 290 L244 287 L243 284 L243 280 L242 277 L241 274 L240 271 L240 268 L239 264 L238 261 L238 258 L238 255 L237 251 L238 248 L238 245 L240 242 L242 239 L244 237 L247 235 L250 234 " fill="none" stroke="#5e2163ff" stroke-width="23" pen="PENCIL"/>
<path d="M372 234 L373 237 L373 240 L374 244 L374 247 L375 250 L375 253 L376 257 L376 260 L376 263 L377 266 L378 270 L378 273 L378 276 L379 279 L379 283 L379 286 L380 289 L380 293 L380 296 L381 299 L381 302 L382 306 L383 309 L384 312 L385 315 L386 318 " fill="none" stroke="#9b2e2fff" stroke-width="23" pen="PENCIL"/>
<path d="M153 293 L156 292 L159 291 L162 290 L166 289 L169 289 L172 288 L175 287 L178 286 L182 286 L185 285 L188 284 L191 284 L195 283 L198 283 L201 282 L204 281 L207 281 L211 280 L214 279 L217 278 L220 278 L223 277 L227 276 L230 275 L233 275 L236 274 L239 274 L243 273 L246 272 L249 272 L252 272 L256 271 L259 271 L262 271 L266 271 L269 270 L272 270 L275 270 L279 269 L282 269 L285 268 L288 268 L291 266 L294 265 L297 263 " fill="none" stroke="#000000ff" stroke-width="23" pen="ERASER"/>
<path d="M264 364 L266 362 L269 359 L271 357 L273 355 L275 352 L278 350 L280 347 L282 345 L284 343 L287 340 L289 338 L291 336 L294 333 L296 331 L298 329 L301 326 L303 324 L306 322 L309 320 L311 318 L314 316 L317 315 L319 313 L322 311 L325 309 L327 306 " fill="none" stroke="#000000ff" stroke-width="23" pen="ERASER"/>
</svg>