<svg xmlns="http://www.w3.org/2000/svg" height="800.0" width="600.0">
<path d="M199 174 L199 175 L199 177 L199 178 L199 180 L199 181 L198 183 L198 184 L198 185 L198 187 L198 188 L198 190 L198 191 L198 193 L199 191 L200 190 L200 189 L201 188 L202 187 L203 185 L203 184 L204 183 L205 182 L206 181 L207 179 L207 178 L208 177 L209 176 L210 175 L211 174 L212 173 L213 172 L214 171 L215 169 L216 168 L216 167 L217 166 L218 165 L219 164 L220 163 L221 162 L222 161 L223 160 L224 159 L225 158 L226 157 L228 156 L229 156 L230 155 L231 154 L232 153 L234 152 L235 152 L236 151 L237 150 L239 150 L240 149 L241 148 L242 148 L244 147 L245 146 L246 145 L247 145 L249 144 L250 143 L251 143 L252 142 L254 142 L255 141 L256 141 L258 141 L259 141 L261 140 L262 140 L264 140 L265 140 L266 140 L268 140 " fill="none" stroke="#53905aff" stroke-width="10" pen="PEN"/>
<path d="M247 181 L248 181 L249 182 L251 183 L252 183 L253 184 L255 184 L256 185 L257 185 L259 186 L260 186 L262 187 L263 187 L264 187 L266 188 L267 188 L268 188 L270 188 L271 189 L273 189 L274 189 L276 189 L277 189 L278 189 L280 189 L281 189 L283 189 L284 190 L286 190 L287 190 L288 190 L290 190 L291 190 L293 190 L294 190 L296 190 L297 190 L298 190 L300 190 L301 190 L303 190 L304 190 L306 190 L307 190 L308 190 L310 190 L311 190 L313 190 L314 190 L316 190 L317 190 L318 190 L320 190 L321 190 L323 190 L324 190 L326 190 L327 190 L328 189 L330 189 L331 189 L333 189 L334 189 L335 188 L337 188 L338 188 L339 186 L339 185 L339 184 L340 182 L340 181 L340 179 L340 178 L340 177 L340 175 L340 174 L340 172 L340 171 L340 169 L340 168 L340 167 L339 167 L338 168 L337 169 " fill="none" stroke="#bcc5faff" stroke-width="10" pen="PEN"/>
<path d="M80 510 L81 509 L83 509 L84 509 L86 509 L87 509 L88 509 L90 509 L91 509 L93 509 L94 509 L95 509 L97 508 L98 508 L100 508 L101 508 L102 508 L104 508 L105 508 L107 508 L108 508 L110 508 L111 508 L112 508 L114 508 L115 508 L117 508 L118 508 L119 508 L121 508 L122 507 L124 507 L125 507 L126 507 " fill="none" stroke="#7303e1ff" stroke-width="10" pen="PEN"/>
<path d="M430 95 L431 95 L433 95 L434 95 L436 95 L437 95 L439 95 L440 95 L441 95 L443 95 L444 95 L446 95 L447 95 L449 95 L450 94 L451 94 L453 93 L454 93 L455 92 L457 92 L458 91 L459 91 L461 90 L462 90 L463 89 L465 89 L466 88 L467 88 L469 87 L470 87 L471 86 L473 86 L474 86 L475 86 L477 86 L478 85 L480 85 L481 85 L483 85 L484 85 L485 85 L487 84 L488 84 L490 84 L491 84 L492 83 L494 83 L495 83 L497 83 L498 82 L499 82 L501 82 L502 81 L504 81 L505 81 L506 81 L508 80 L509 80 L511 80 L512 80 L514 80 L515 80 L516 80 L518 80 L519 80 L521 80 L522 80 L524 80 L525 80 L526 80 L528 80 L529 80 L531 80 L532 80 L534 80 L535 80 L536 80 L538 80 L539 80 L541 80 L542 80 L544 80 L545 80 L546 80 L548 80 L549 80 L551 80 L552 80 L554 80 L555 80 L556 80 L558 80 L559 80 L561 80 L562 80 L564 80 L565 80 L566 80 L568 80 L569 80 L571 80 L572 80 L574 80 L575 80 L576 80 L578 80 L579 80 L581 80 L582 80 L584 80 L585 80 L586 80 L588 80 L589 80 L591 80 L592 80 L594 80 L595 80 L596 80 L598 80 L599 80 L601 80 L602 80 L604 80 L605 80 L606 80 L608 80 L609 80 L611 80 L612 80 L614 80 L615 80 L616 80 L618 80 L619 80 L621 80 L622 80 L624 80 L625 80 L626 80 L628 80 L629 80 L631 80 L632 80 L634 80 L635 80 L636 80 L638 80 L639 80 L641 80 L642 80 L644 80 L645 80 L646 80 L648 80 L649 80 L651 80 L652 80 L654 80 L655 80 L656 80 L658 80 L659 80 L661 80 L662 80 L664 80 L665 80 L666 80 L668 80 L669 80 L671 80 L672 80 L674 80 L675 80 L676 80 L678 80 L679 80 L681 80 L682 80 L684 80 L685 80 L686 80 L688 80 L689 80 L691 80 L692 80 L694 80 L695 80 L696 80 L698 80 L699 80 L701 80 L702 80 L704 80 L705 80 L706 80 L708 80 L709 80 L711 80 L712 80 L714 80 L715 80 L716 80 L718 80 L719 80 L721 80 L722 80 L724 80 L725 80 L726 80 L728 80 L729 80 L731 80 L732 80 L734 80 L735 80 L736 80 L738 80 L739 80 L741 80 L742 80 L744 80 L745 80 L746 80 L748 80 L749 80 L751 80 L752 80 L754 80 L755 80 L756 80 L758 80 L759 80 L761 80 L762 80 L764 80 L765 80 L766 80 L768 80 L769 80 L771 80 L772 80 L774 80 L775 80 L776 80 L778 80 L779 80 L781 80 L782 80 L784 80 L785 80 L786 80 L788 80 L789 80 L791 80 L792 80 L794 80 L795 80 L796 80 L798 80 L799 80 L801 80 L802 80 L804 80 L805 80 L806 80 L808 80 L809 80 L811 80 L812 80 L814 80 L815 80 L816 80 L818 80 L819 80 L821 80 L822 80 L824 80 L825 80 L826 80 L828 80 L829 80 L831 80 L832 80 L834 80 L835 80 L836 80 L838 80 L839 80 L841 80 L842 80 L844 80 L845 80 L846 80 L848 80 L849 80 L851 80 L852 80 L854 80 L855 80 L856 80 L858 80 L859 80 L861 80 L862 80 L864 80 L865 80 L866 80 L868 80 " fill="none" stroke="#aafa70ff" stroke-width="10" pen="PEN"/>
<path d="M60 506 L59 507 L59 509 L59 510 L58 512 L58 513 L58 514 L58 516 L58 517 L58 519 L58 520 L58 522 L58 523 L58 524 L59 526 L59 527 L59 529 L59 530 L59 531 L59 533 L60 534 L60 536 L60 537 L60 539 " fill="none" stroke="#1cf602ff" stroke-width="10" pen="PEN"/>
<path d="M385 131 L386 132 L387 133 L388 134 L389 135 L390 136 L391 137 L392 138 L393 139 L394 140 L395 141 L396 142 L397 143 L398 144 L399 145 L401 146 L402 147 L403 148 L404 149 L405 150 L406 150 L407 151 L408 152 L409 153 L410 154 L411 155 L413 156 L414 157 L415 157 L416 158 L417 159 L418 160 L420 161 L421 162 L422 163 L423 163 L424 164 L425 165 L426 166 L427 167 L428 168 " fill="none" stroke="#acd4b5ff" stroke-width="10" pen="PEN"/>
<path d="M101 438 L102 439 L103 440 L105 441 L106 442 L107 443 L108 443 L109 444 L111 444 L112 445 L114 446 L115 446 L116 447 L118 447 L119 448 L120 448 L122 449 L123 449 L125 450 L126 450 L127 450 L129 450 L130 451 L132 451 L133 451 L135 452 L136 452 L137 452 L139 452 L140 452 L142 452 L143 452 L145 452 L146 451 L148 451 L149 451 L150 450 L151 449 L152 448 L154 447 L154 446 L155 445 L156 443 L157 442 L158 441 L158 440 L159 438 L159 437 L159 435 L159 434 L159 432 L159 431 L159 430 L158 428 L158 427 L157 425 L157 424 L156 423 L156 421 L155 420 L155 418 L154 417 L153 416 L152 415 L152 414 L150 413 L149 412 L148 411 L147 410 L146 409 L145 408 L144 407 L142 407 L141 407 L139 406 L138 407 L136 407 L135 407 L134 408 L132 408 L131 409 L130 410 L129 411 L128 412 L127 413 L126 414 L125 415 L124 416 L123 418 L122 419 L122 420 L121 421 L120 423 L120 424 " fill="none" stroke="#01bbeeff" stroke-width="10" pen="PEN"/>
<path d="M35 548 L36 549 L37 550 L39 550 L40 550 L41 551 L43 551 L44 551 L46 551 L47 552 L48 552 L50 552 L51 552 L53 552 L54 552 L56 552 L57 551 L58 551 L59 550 " fill="none" stroke="#b22a1aff" stroke-width="10" pen="PEN"/>
<path d="M27 563 L29 563 L30 563 L32 563 L33 563 L35 563 L36 563 L37 563 L39 564 L40 564 L42 564 L43 563 L45 563 " fill="none" stroke="#f09f56ff" stroke-width="10" pen="PEN"/>
<path d="M1015 -1870 L1015 -1869 L1015 -1867 L1015 -1866 L1015 -1864 L1015 -1863 L1015 -1861 L1015 -1860 L1015 -1859 L1015 -1857 L1015 -1856 L1014 -1854 L1014 -1853 L1014 -1852 L1014 -1850 L1013 -1849 L1013 -1847 L1013 -1846 L1013 -1844 L1012 -1843 L1012 -1842 L1012 -1840 L1012 -1839 L1011 -1837 L1011 -1836 L1011 -1835 L1011 -1833 L1010 -1832 L1010 -1830 L1010 -1829 L1010 -1828 L1010 -1826 L1010 -1825 L1010 -1823 L1010 -1822 L1010 -1820 L1010 -1819 L1010 -1818 L1010 -1816 L1010 -1815 L1010 -1813 L1010 -1812 L1010 -1810 L1010 -1809 L1010 -1808 L1010 -1806 L1010 -1805 L1010 -1803 L1010 -1802 L1010 -1800 L1010 -1799 L1010 -1798 L1010 -1796 L1010 -1795 L1010 -1793 L1010 -1792 L1010 -1790 L1010 -1789 L1010 -1788 L1010 -1786 L1010 -1785 L1010 -1783 L1010 -1782 L1010 -1780 L1010 -1779 L1010 -1778 L1010 -1776 L1010 -1775 L1010 -1773 L1010 -1772 L1010 -1770 L1010 -1769 L1010 -1768 L1010 -1766 L1010 -1765 L1010 -1763 L1010 -1762 L1010 -1760 L1010 -1759 L1010 -1758 L1010 -1756 L1010 -1755 L1010 -1753 L1010 -1752 L1010 -1750 L1010 -1749 L1010 -1748 L1010 -1746 L1010 -1745 L1010 -1743 L1010 -1742 L1010 -1740 L1010 -1739 L1010 -1738 L1010 -1736 L1010 -1735 L1010 -1733 L1010 -1732 L1010 -1730 L1010 -1729 L1010 -1728 L1010 -1726 L1010 -1725 L1010 -1723 L1010 -1722 L1010 -1720 L1010 -1719 L1010 -1718 L1010 -1716 L1010 -1715 L1010 -1713 L1010 -1712 L1010 -1710 L1010 -1709 L1010 -1708 L1010 -1706 L1010 -1705 L1010 -1703 L1010 -1702 L1010 -1700 L1010 -1699 L1010 -1698 L1010 -1696 L1010 -1695 L1010 -1693 L1010 -1692 L1010 -1690 L1010 -1689 L1010 -1688 L1010 -1686 L1010 -1685 L1010 -1683 L1010 -1682 L1010 -1680 L1010 -1679 L1010 -1678 L1010 -1676 L1010 -1675 L1010 -1673 L1010 -1672 L1010 -1670 L1010 -1669 L1010 -1668 L1010 -1666 L1010 -1665 L1010 -1663 L1010 -1662 L1010 -1660 L1010 -1659 L1010 -1658 L1010 -1656 L1010 -1655 L1010 -1653 L1010 -1652 L1010 -1650 L1010 -1649 L1010 -1648 L1010 -1646 L1010 -1645 L1010 -1643 L1010 -1642 L1010 -1640 L1010 -1639 L1010 -1638 L1010 -1636 L1010 -1635 L1010 -1633 L1010 -1632 L1010 -1630 L1010 -1629 L1010 -1628 L1010 -1626 L1010 -1625 L1010 -1623 L1010 -1622 L1010 -1620 L1010 -1619 L1010 -1618 L1010 -1616 L1010 -1615 L1010 -1613 L1010 -1612 L1010 -1610 L1010 -1609 L1010 -1608 L1010 -1606 L1010 -1605 L1010 -1603 L1010 -1602 L1010 -1600 L1010 -1599 L1010 -1598 L1010 -1596 L1010 -1595 L1010 -1593 L1010 -1592 L1010 -1590 L1010 -1589 L1010 -1588 L1010 -1586 L1010 -1585 L1010 -1583 L1010 -1582 L1010 -1580 L1010 -1579 L1010 -1578 L1010 -1576 L1010 -1575 L1010 -1573 L1010 -1572 L1010 -1570 L1010 -1569 L1010 -1568 L1011 -1566 L1011 -1565 L1011 -1563 L1011 -1562 L1011 -1561 L1011 -1559 L1012 -1558 L1012 -1556 L1012 -1555 L1012 -1553 L1012 -1552 L1012 -1551 L1013 -1549 L1013 -1548 L1013 -1546 L1013 -1545 L1013 -1543 L1013 -1542 L1014 -1541 L1014 -1539 L1014 -1538 L1014 -1536 L1014 -1535 L1014 -1534 L1015 -1532 L1015 -1531 L1015 -1529 L1015 -1528 L1015 -1526 L1015 -1525 L1015 -1524 L1016 -1522 L1016 -1521 L1016 -1519 L1016 -1518 L1016 -1516 L1016 -1515 L1017 -1514 L1017 -1512 L1017 -1511 L1017 -1509 L1017 -1508 L1017 -1507 L1018 -1505 L1018 -1504 L1018 -1502 L1018 -1501 L1018 -1499 L1018 -1498 L1019 -1497 L1019 -1495 L1019 -1494 L1019 -1492 L1019 -1491 L1019 -1490 L1020 -1488 L1020 -1487 L1020 -1485 L1020 -1484 L1020 -1482 L1020 -1481 L1020 -1480 L1021 -1478 L1021 -1477 L1021 -1475 L1021 -1474 L1021 -1472 L1021 -1471 L1022 -1470 L1022 -1468 L1022 -1467 L1022 -1465 L1022 -1464 L1022 -1463 L1023 -1461 L1023 -1460 L1023 -1458 L1023 -1457 L1023 -1455 L1023 -1454 L1024 -1453 L1024 -1451 L1024 -1450 L1024 -1448 L1024 -1447 L1024 -1446 L1025 -1444 L1025 -1443 L1025 -1441 L1025 -1440 L1025 -1438 L1026 -1437 L1026 -1436 L1026 -1434 L1026 -1433 L1026 -1431 L1027 -1430 L1027 -1429 L1027 -1427 L1027 -1426 L1028 -1424 L1028 -1423 L1028 -1422 L1028 -1420 L1028 -1419 L1029 -1417 L1029 -1416 L1029 -1414 L1029 -1413 L1030 -1412 L1030 -1410 L1030 -1409 L1030 -1407 L1030 -1406 L1031 -1405 L1031 -1403 L1031 -1402 L1031 -1400 L1032 -1399 L1032 -1398 L1032 -1396 L1032 -1395 L1032 -1393 L1033 -1392 L1033 -1390 L1033 -1389 L1033 -1388 L1034 -1386 L1034 -1385 L1034 -1383 L1034 -1382 L1034 -1381 L1035 -1379 L1035 -1378 L1035 -1376 L1035 -1375 L1036 -1374 L1036 -1372 L1036 -1371 L1036 -1369 L1036 -1368 L1037 -1366 L1037 -1365 L1037 -1364 L1037 -1362 L1038 -1361 L1038 -1359 L1038 -1358 L1038 -1357 L1038 -1355 L1039 -1354 L1039 -1352 L1039 -1351 L1039 -1350 L1040 -1348 L1040 -1347 L1040 -1345 L1040 -1344 L1041 -1343 L1041 -1341 L1041 -1340 L1042 -1338 L1042 -1337 L1042 -1336 L1043 -1334 L1043 -1333 L1043 -1331 L1044 -1330 L1044 -1329 L1044 -1327 L1045 -1326 L1045 -1324 L1045 -1323 L1045 -1322 L1046 -1320 L1046 -1319 L1046 -1317 L1047 -1316 L1047 -1315 L1047 -1313 L1048 -1312 L1048 -1311 L1048 -1309 L1049 -1308 L1049 -1306 L1049 -1305 L1050 -1304 L1050 -1302 L1050 -1301 L1051 -1299 L1051 -1298 L1051 -1297 L1052 -1295 L1052 -1294 L1052 -1292 L1052 -1291 L1053 -1290 L1053 -1288 L1053 -1287 L1054 -1285 L1054 -1284 L1054 -1283 L1055 -1281 L1055 -1280 L1055 -1278 L1055 -1277 L1056 -1276 L1056 -1274 L1056 -1273 L1056 -1271 L1057 -1270 L1057 -1269 L1057 -1267 L1057 -1266 L1058 -1264 L1058 -1263 L1058 -1262 L1059 -1260 L1059 -1259 L1059 -1257 L1059 -1256 L1060 -1255 L1060 -1253 L1060 -1252 L1060 -1250 L1061 -1249 L1061 -1248 L1061 -1246 L1061 -1245 L1062 -1243 L1062 -1242 L1062 -1241 L1062 -1239 L1063 -1238 L1063 -1236 L1063 -1235 L1063 -1233 L1064 -1232 L1064 -1231 L1064 -1229 L1064 -1228 L1065 -1226 L1065 -1225 L1066 -1224 L1066 -1222 L1066 -1221 L1067 -1220 L1067 -1218 L1067 -1217 L1068 -1215 L1068 -1214 L1069 -1213 L1069 -1211 L1069 -1210 L1070 -1209 L1070 -1207 L1071 -1206 L1071 -1204 L1071 -1203 L1072 -1202 L1072 -1200 L1072 -1199 L1073 -1198 L1073 -1196 L1074 -1195 L1074 -1193 L1074 -1192 L1075 -1191 L1075 -1189 L1075 -1188 L1076 -1187 L1076 -1185 L1077 -1184 L1077 -1182 L1077 -1181 L1078 -1180 L1078 -1178 L1078 -1177 L1079 -1175 L1079 -1174 L1079 -1173 L1080 -1171 L1080 -1170 L1080 -1169 L1081 -1167 L1081 -1166 L1081 -1164 L1082 -1163 L1082 -1162 L1082 -1160 L1083 -1159 L1083 -1157 L1083 -1156 L1084 -1155 L1084 -1153 L1085 -1152 L1085 -1151 L1086 -1149 L1086 -1148 L1087 -1147 L1087 -1145 L1088 -1144 L1088 -1143 L1089 -1141 L1089 -1140 L1090 -1139 L1090 -1137 L1091 -1136 L1091 -1135 L1092 -1133 L1092 -1132 L1093 -1131 L1093 -1129 L1094 -1128 L1094 -1127 L1095 -1125 L1095 -1124 L1095 -1122 L1096 -1121 L1096 -1120 L1097 -1118 L1097 -1117 L1097 -1116 L1098 -1114 L1098 -1113 L1098 -1111 L1099 -1110 L1099 -1109 L1099 -1107 L1100 -1106 L1100 -1105 L1101 -1103 L1101 -1102 L1102 -1100 L1102 -1099 L1102 -1098 L1103 -1096 L1103 -1095 L1104 -1094 L1104 -1092 L1104 -1091 L1105 -1089 L1105 -1088 L1105 -1087 L1105 -1085 L1105 -1084 L1105 -1082 L1105 -1081 L1105 -1079 L1105 -1078 L1105 -1077 L1105 -1075 L1105 -1074 L1105 -1072 L1106 -1072 L1108 -1071 L1109 -1070 L1110 -1069 L1111 -1068 L1112 -1067 L1113 -1067 L1115 -1067 L1116 -1066 L1117 -1066 L1119 -1066 L1120 -1066 L1122 -1066 L1123 -1066 L1125 -1066 L1126 -1066 L1127 -1066 L1129 -1066 L1130 -1066 L1132 -1066 L1133 -1066 L1134 -1066 L1136 -1066 L1137 -1066 L1139 -1065 L1140 -1065 L1142 -1065 L1143 -1065 L1144 -1065 L1146 -1065 L1147 -1065 L1149 -1065 L1150 -1065 L1152 -1065 L1153 -1065 L1154 -1065 L1156 -1065 L1157 -1065 L1159 -1065 L1160 -1065 L1162 -1065 L1163 -1065 L1164 -1065 L1166 -1065 L1167 -1065 L1169 -1065 L1170 -1065 L1172 -1065 L1173 -1065 L1174 -1065 L1176 -1065 L1177 -1065 L1179 -1065 L1180 -1065 L1182 -1065 L1183 -1065 L1184 -1065 L1186 -1065 L1187 -1065 L1189 -1065 L1190 -1065 L1192 -1065 L1193 -1065 L1194 -1065 L1196 -1065 L1197 -1065 L1199 -1065 L1200 -1065 L1202 -1065 L1203 -1065 L1204 -1065 L1206 -1065 L1207 -1065 L1209 -1065 L1210 -1065 L1212 -1065 L1213 -1065 L1214 -1065 L1216 -1065 L1217 -1065 L1219 -1065 L1220 -1066 L1221 -1066 L1223 -1067 L1224 -1067 L1225 -1068 L1227 -1068 L1228 -1069 L1230 -1069 L1231 -1070 L1232 -1070 L1234 -1071 L1235 -1071 L1236 -1071 L1238 -1072 L1239 -1072 L1240 -1073 L1242 -1073 L1243 -1074 L1244 -1074 L1246 -1075 L1247 -1075 L1248 -1076 L1250 -1076 L1251 -1077 L1252 -1077 L1254 -1077 L1255 -1078 L1257 -1078 L1258 -1079 L1259 -1079 L1261 -1080 L1262 -1080 L1263 -1081 L1265 -1081 L1266 -1082 L1267 -1082 L1269 -1083 L1270 -1083 L1271 -1084 L1273 -1084 L1274 -1084 L1275 -1085 L1277 -1085 L1278 -1086 L1280 -1086 L1281 -1087 L1282 -1087 L1284 -1088 L1285 -1088 L1286 -1089 L1288 -1089 L1289 -1090 L1290 -1090 L1292 -1090 L1293 -1091 L1294 -1091 L1296 -1092 L1297 -1092 L1298 -1093 L1300 -1093 L1301 -1094 L1302 -1094 L1304 -1095 L1305 -1095 L1306 -1096 L1308 -1096 L1309 -1097 L1310 -1098 L1312 -1098 L1313 -1099 L1314 -1099 L1316 -1100 L1317 -1100 L1318 -1101 L1319 -1102 L1321 -1102 L1322 -1103 L1323 -1103 L1325 -1104 L1326 -1104 L1327 -1105 L1329 -1106 L1330 -1106 L1331 -1107 L1333 -1107 L1334 -1108 L1335 -1109 L1337 -1109 L1338 -1110 L1339 -1110 L1340 -1111 L1342 -1111 L1343 -1112 L1344 -1113 L1346 -1113 L1347 -1114 L1348 -1114 L1349 -1115 L1351 -1116 L1352 -1117 L1353 -1117 L1354 -1118 L1356 -1119 L1357 -1120 L1358 -1120 L1359 -1121 L1360 -1122 L1362 -1123 L1363 -1123 L1364 -1124 L1365 -1125 L1366 -1126 L1368 -1127 L1369 -1127 L1370 -1128 L1371 -1129 L1372 -1130 L1374 -1130 L1375 -1131 L1376 -1132 L1377 -1133 L1378 -1133 L1380 -1134 L1381 -1135 L1382 -1136 L1383 -1137 L1384 -1137 L1386 -1138 L1387 -1139 L1388 -1140 L1389 -1140 L1390 -1141 L1392 -1142 L1393 -1143 L1394 -1143 L1395 -1144 L1396 -1145 L1398 -1146 L1399 -1147 L1400 -1147 L1401 -1148 L1402 -1149 L1404 -1150 L1405 -1150 L1406 -1151 L1407 -1152 L1408 -1153 L1410 -1153 L1411 -1154 L1412 -1155 L1413 -1156 L1415 -1157 L1416 -1157 L1417 -1158 L1418 -1159 L1419 -1160 L1420 -1161 L1421 -1162 L1422 -1163 L1423 -1164 L1424 -1165 L1425 -1166 L1426 -1167 L1427 -1168 L1428 -1169 L1429 -1170 L1430 -1171 L1431 -1172 L1432 -1173 L1433 -1174 L1434 -1175 L1436 -1176 L1437 -1177 L1438 -1178 L1439 -1179 L1440 -1180 L1441 -1181 L1442 -1182 L1443 -1183 L1444 -1184 L1445 -1185 L1446 -1186 L1447 -1187 L1447 -1188 L1448 -1189 L1449 -1190 L1450 -1191 L1451 -1192 L1452 -1193 L1453 -1195 L1454 -1196 L1455 -1197 L1456 -1198 L1457 -1199 L1458 -1200 L1459 -1201 L1460 -1202 L1461 -1203 L1461 -1204 L1462 -1205 L1463 -1206 L1464 -1208 L1465 -1209 L1466 -1210 L1467 -1211 L1468 -1212 L1469 -1213 L1470 -1214 L1471 -1215 L1472 -1216 L1473 -1217 L1474 -1218 L1474 -1220 L1474 -1221 L1475 -1223 L1475 -1224 L1475 -1225 L1476 -1227 L1476 -1228 L1476 -1229 L1477 -1231 L1477 -1232 L1477 -1234 L1478 -1235 L1478 -1236 L1478 -1238 L1479 -1239 L1479 -1241 L1479 -1242 L1480 -1243 L1480 -1245 L1480 -1246 L1480 -1248 L1481 -1249 L1481 -1250 L1481 -1252 L1482 -1253 L1482 -1255 L1482 -1256 L1482 -1257 L1483 -1259 L1483 -1260 L1483 -1262 L1484 -1263 L1484 -1264 L1484 -1266 L1484 -1267 L1485 -1269 L1485 -1270 L1485 -1271 L1486 -1273 L1486 -1274 L1486 -1276 L1486 -1277 L1487 -1278 L1487 -1280 L1487 -1281 L1487 -1283 L1488 -1284 L1488 -1285 L1488 -1287 L1489 -1288 L1489 -1290 L1489 -1291 L1489 -1292 L1490 -1294 L1490 -1295 L1490 -1297 L1491 -1298 L1491 -1299 L1491 -1301 L1491 -1302 L1492 -1304 L1492 -1305 L1492 -1306 L1493 -1308 L1493 -1309 L1493 -1311 L1493 -1312 L1494 -1313 L1494 -1315 L1494 -1316 L1494 -1318 L1495 -1319 L1495 -1320 L1495 -1322 L1496 -1323 L1496 -1325 L1496 -1326 L1496 -1327 L1497 -1329 L1497 -1330 L1497 -1332 L1498 -1333 L1498 -1334 L1498 -1336 L1498 -1337 L1499 -1339 L1499 -1340 L1499 -1341 L1500 -1343 L1500 -1344 L1500 -1346 L1500 -1347 L1500 -1349 L1500 -1350 L1500 -1351 L1500 -1353 L1500 -1354 L1500 -1356 L1500 -1357 L1500 -1359 L1500 -1360 L1500 -1361 L1500 -1363 L1500 -1364 L1500 -1366 L1500 -1367 L1500 -1369 L1500 -1370 L1500 -1371 L1500 -1373 L1500 -1374 L1500 -1376 L1500 -1377 L1500 -1379 L1500 -1380 L1500 -1381 L1500 -1383 L1500 -1384 L1500 -1386 L1500 -1387 L1500 -1389 L1500 -1390 L1500 -1391 L1500 -1393 L1500 -1394 L1500 -1396 L1500 -1397 L1500 -1399 L1500 -1400 L1500 -1401 L1500 -1403 L1500 -1404 L1500 -1406 L1500 -1407 L1500 -1409 L1500 -1410 L1500 -1411 L1500 -1413 L1500 -1414 L1500 -1416 L1500 -1417 L1500 -1419 L1500 -1420 L1500 -1421 L1500 -1423 L1500 -1424 L1500 -1426 L1500 -1427 L1500 -1429 L1500 -1430 L1500 -1431 L1500 -1433 L1500 -1434 L1500 -1436 L1500 -1437 L1500 -1439 L1500 -1440 L1500 -1441 L1500 -1443 L1500 -1444 L1500 -1446 L1500 -1447 L1500 -1449 L1500 -1450 L1500 -1451 L1499 -1453 L1499 -1454 L1499 -1456 L1499 -1457 L1499 -1458 L1498 -1460 L1498 -1461 L1498 -1463 L1498 -1464 L1497 -1465 L1497 -1467 L1497 -1468 L1497 -1470 L1497 -1471 L1496 -1473 L1496 -1474 L1496 -1475 L1496 -1477 L1496 -1478 L1495 -1480 L1495 -1481 L1495 -1482 L1495 -1484 L1495 -1485 L1494 -1487 L1494 -1488 L1494 -1489 L1494 -1491 L1494 -1492 L1493 -1494 L1493 -1495 L1493 -1497 L1493 -1498 L1492 -1499 L1492 -1501 L1492 -1502 L1492 -1504 L1492 -1505 L1491 -1506 L1491 -1508 L1491 -1509 L1491 -1511 L1491 -1512 L1490 -1514 L1490 -1515 L1490 -1516 L1490 -1518 L1490 -1519 L1489 -1521 L1489 -1522 L1489 -1523 L1489 -1525 L1489 -1526 L1488 -1528 L1488 -1529 L1488 -1530 L1488 -1532 L1487 -1533 L1487 -1535 L1487 -1536 L1487 -1538 L1487 -1539 L1486 -1540 L1486 -1542 L1486 -1543 L1486 -1545 L1486 -1546 L1485 -1547 L1485 -1549 L1484 -1550 L1484 -1551 L1483 -1553 L1483 -1554 L1482 -1555 L1482 -1557 L1481 -1558 L1480 -1559 L1480 -1561 L1479 -1562 L1479 -1563 L1478 -1565 L1478 -1566 L1477 -1567 L1477 -1569 L1476 -1570 L1476 -1571 L1475 -1573 L1474 -1574 L1474 -1575 L1473 -1576 L1473 -1578 L1472 -1579 L1472 -1580 L1471 -1582 L1471 -1583 L1470 -1584 L1470 -1586 L1469 -1587 L1468 -1588 L1468 -1590 L1467 -1591 L1467 -1592 L1466 -1594 L1466 -1595 L1465 -1596 L1465 -1598 L1464 -1599 L1464 -1600 L1463 -1602 L1462 -1603 L1462 -1604 L1461 -1606 L1461 -1607 L1460 -1608 L1460 -1609 L1459 -1611 L1459 -1612 L1458 -1613 L1458 -1615 L1457 -1616 L1456 -1617 L1456 -1619 L1455 -1620 L1455 -1621 L1454 -1623 L1454 -1624 L1453 -1625 L1453 -1627 L1452 -1628 L1452 -1629 L1451 -1631 L1450 -1632 L1450 -1633 L1449 -1635 L1449 -1636 L1448 -1637 L1448 -1639 L1447 -1640 L1447 -1641 L1446 -1642 L1445 -1643 L1444 -1644 L1443 -1645 L1442 -1646 L1441 -1647 L1440 -1648 L1439 -1649 L1438 -1650 L1437 -1651 L1435 -1652 L1434 -1653 L1433 -1654 L1432 -1655 L1431 -1656 L1430 -1657 L1429 -1658 L1428 -1659 L1427 -1660 L1426 -1661 L1425 -1662 L1424 -1663 L1423 -1664 L1422 -1664 L1421 -1665 L1420 -1666 L1418 -1667 L1417 -1668 L1416 -1669 L1415 -1670 L1414 -1671 L1413 -1672 L1412 -1673 L1411 -1674 L1410 -1675 L1408 -1675 L1407 -1676 L1406 -1677 L1405 -1677 L1403 -1678 L1402 -1679 L1401 -1679 L1400 -1680 L1398 -1681 L1397 -1682 L1396 -1682 L1395 -1683 L1394 -1684 L1392 -1684 L1391 -1685 L1390 -1686 L1389 -1687 L1387 -1687 L1386 -1688 L1385 -1689 L1384 -1689 L1382 -1690 L1381 -1691 L1380 -1692 L1379 -1692 L1377 -1693 L1376 -1694 L1375 -1694 L1374 -1695 L1372 -1696 L1371 -1696 L1370 -1697 L1369 -1698 L1367 -1699 L1366 -1699 L1365 -1699 L1363 -1699 L1362 -1699 L1360 -1699 L1359 -1699 L1357 -1699 L1356 -1699 L1355 -1699 L1353 -1699 L1352 -1699 L1350 -1699 L1349 -1699 L1347 -1699 L1346 -1699 L1345 -1699 L1343 -1699 L1342 -1699 L1340 -1699 L1339 -1700 L1337 -1700 L1336 -1700 L1335 -1700 L1333 -1700 L1332 -1700 L1330 -1700 L1329 -1700 L1327 -1700 L1326 -1700 L1325 -1700 L1323 -1699 L1322 -1699 L1320 -1699 L1319 -1699 L1318 -1699 L1316 -1698 L1315 -1698 L1313 -1698 L1312 -1698 L1310 -1698 L1309 -1698 L1308 -1697 L1306 -1697 L1305 -1697 L1303 -1697 L1302 -1697 L1301 -1696 L1299 -1696 L1298 -1696 L1296 -1696 L1295 -1696 L1293 -1695 L1292 -1695 L1291 -1695 L1290 -1694 L1288 -1693 L1287 -1692 L1286 -1692 L1285 -1691 L1283 -1690 L1282 -1690 L1281 -1689 L1280 -1688 L1278 -1688 L1277 -1687 L1276 -1686 L1275 -1685 L1273 -1685 L1272 -1684 L1271 -1683 L1270 -1683 L1268 -1682 L1267 -1681 L1266 -1680 L1265 -1679 L1264 -1678 L1263 -1677 L1263 -1676 L1262 -1675 L1261 -1674 L1260 -1673 L1259 -1671 L1258 -1670 L1257 -1669 L1256 -1668 L1255 -1667 L1254 -1666 L1253 -1665 L1252 -1664 L1251 -1663 L1250 -1662 L1249 -1661 L1249 -1660 L1248 -1659 L1247 -1657 L1246 -1656 L1245 -1655 L1244 -1654 L1243 -1653 L1242 -1652 L1241 -1651 L1240 -1650 L1239 -1649 L1238 -1648 L1237 -1647 L1236 -1646 L1235 -1644 L1235 -1643 L1234 -1642 L1233 -1641 L1232 -1640 L1231 -1639 L1230 -1638 L1229 -1637 L1228 -1636 L1227 -1635 L1226 -1634 L1225 -1633 L1224 -1631 L1223 -1630 L1222 -1629 L1221 -1628 L1221 -1627 L1220 -1626 L1219 -1625 L1218 -1624 L1217 -1623 L1216 -1622 L1215 -1621 L1214 -1620 L1213 -1619 L1212 -1617 L1211 -1616 L1211 -1615 L1210 -1614 L1209 -1612 L1209 -1611 L1208 -1610 L1208 -1608 L1207 -1607 L1207 -1606 L1206 -1605 L1206 -1603 L1205 -1602 L1204 -1601 L1204 -1599 L1203 -1598 L1203 -1597 L1202 -1595 L1202 -1594 L1201 -1593 L1200 -1591 L1200 -1590 L1199 -1589 L1199 -1587 L1198 -1586 L1198 -1585 L1197 -1584 L1197 -1582 L1196 -1581 L1195 -1580 L1195 -1578 L1194 -1577 L1194 -1576 L1193 -1574 L1193 -1573 L1192 -1572 L1192 -1570 L1191 -1569 L1190 -1568 L1190 -1566 L1189 -1565 L1189 -1564 L1188 -1562 L1188 -1561 L1187 -1560 L1186 -1559 L1186 -1557 L1185 -1556 L1185 -1555 L1184 -1553 L1184 -1552 L1183 -1551 L1183 -1549 L1182 -1548 L1181 -1547 L1181 -1545 L1180 -1544 L1180 -1543 L1179 -1541 L1179 -1540 L1178 -1539 L1177 -1538 L1177 -1536 L1176 -1535 L1176 -1534 L1175 -1532 L1175 -1531 L1174 -1530 L1174 -1528 L1173 -1527 L1172 -1526 L1172 -1524 L1171 -1523 L1171 -1522 L1170 -1520 L1170 -1519 L1169 -1518 L1168 -1517 L1168 -1515 L1167 -1514 L1167 -1513 L1166 -1511 L1166 -1510 L1165 -1509 L1165 -1507 L1164 -1506 L1163 -1505 L1163 -1503 L1162 -1502 L1162 -1501 L1161 -1499 L1161 -1498 L1160 -1497 L1159 -1496 L1159 -1494 L1158 -1493 L1158 -1492 L1157 -1490 L1157 -1489 L1156 -1488 L1156 -1486 L1156 -1485 L1156 -1483 L1156 -1482 L1156 -1480 L1156 -1479 L1156 -1478 L1156 -1476 L1156 -1475 L1156 -1473 L1156 -1472 L1156 -1470 L1156 -1469 L1156 -1468 L1156 -1466 L1156 -1465 L1156 -1463 L1156 -1462 L1156 -1460 L1156 -1459 L1156 -1458 L1156 -1456 L1156 -1455 L1156 -1453 L1156 -1452 L1156 -1450 L1156 -1449 L1156 -1448 L1156 -1446 L1156 -1445 L1156 -1443 L1156 -1442 L1156 -1440 L1156 -1439 L1156 -1438 L1156 -1436 L1156 -1435 L1156 -1433 L1156 -1432 L1156 -1430 L1156 -1429 L1156 -1428 L1156 -1426 L1156 -1425 L1156 -1423 L1156 -1422 L1156 -1420 L1156 -1419 L1156 -1418 L1156 -1416 L1156 -1415 L1156 -1413 L1156 -1412 L1155 -1410 L1155 -1409 L1155 -1408 L1155 -1406 L1155 -1405 L1155 -1403 L1155 -1402 L1155 -1400 L1155 -1399 L1155 -1398 L1155 -1396 L1155 -1395 L1155 -1393 L1155 -1392 L1155 -1390 L1155 -1389 L1155 -1388 L1155 -1386 L1155 -1385 L1155 -1383 L1155 -1382 L1155 -1380 L1155 -1379 L1155 -1378 L1155 -1376 L1155 -1375 L1155 -1373 L1155 -1372 L1155 -1370 L1155 -1369 L1155 -1368 L1155 -1366 L1155 -1365 L1155 -1363 L1155 -1362 L1155 -1360 L1155 -1359 L1155 -1358 L1155 -1356 L1155 -1355 L1155 -1353 L1155 -1352 L1155 -1350 L1155 -1349 L1155 -1348 L1155 -1346 L1155 -1345 L1155 -1343 L1155 -1342 L1155 -1340 L1155 -1339 L1155 -1338 L1155 -1336 L1155 -1335 L1155 -1333 L1155 -1332 L1155 -1330 L1155 -1329 L1155 -1328 L1155 -1326 L1155 -1325 L1155 -1323 L1155 -1322 L1155 -1320 L1155 -1319 L1155 -1318 L1155 -1316 L1155 -1315 L1155 -1313 L1155 -1312 L1155 -1310 L1155 -1309 L1155 -1308 L1155 -1306 L1155 -1305 L1155 -1303 L1155 -1302 L1155 -1300 L1155 -1299 L1155 -1298 L1155 -1296 L1156 -1295 L1156 -1293 L1156 -1292 L1156 -1291 L1157 -1289 L1157 -1288 L1157 -1286 L1158 -1285 L1158 -1284 L1158 -1282 L1158 -1281 L1159 -1279 L1159 -1278 L1159 -1277 L1160 -1275 L1160 -1274 L1160 -1272 L1160 -1271 L1161 -1270 L1161 -1268 L1161 -1267 L1162 -1265 L1162 -1264 L1162 -1263 L1163 -1261 L1163 -1260 L1163 -1258 L1163 -1257 L1164 -1256 L1164 -1254 L1164 -1253 L1165 -1251 L1165 -1250 L1165 -1249 L1165 -1247 L1166 -1246 L1166 -1244 L1166 -1243 L1167 -1242 L1167 -1240 L1167 -1239 L1167 -1237 L1168 -1236 L1168 -1235 L1168 -1233 L1169 -1232 L1169 -1230 L1169 -1229 L1169 -1228 L1170 -1227 L1171 -1225 L1172 -1224 L1173 -1223 L1174 -1222 L1175 -1221 L1176 -1220 L1177 -1219 L1178 -1218 L1178 -1217 L1179 -1215 L1180 -1214 L1181 -1213 L1182 -1212 L1183 -1211 L1184 -1210 L1185 -1209 L1186 -1208 L1187 -1207 L1187 -1205 L1188 -1204 L1189 -1203 L1190 -1202 L1191 -1201 L1192 -1200 L1193 -1199 L1194 -1198 L1195 -1197 L1196 -1195 L1196 -1194 L1197 -1193 L1198 -1192 L1199 -1191 L1200 -1190 L1201 -1189 L1202 -1188 L1204 -1187 L1205 -1186 L1206 -1185 L1207 -1184 L1208 -1184 L1209 -1183 L1210 -1182 L1211 -1181 L1212 -1180 L1213 -1179 L1214 -1178 L1215 -1177 L1216 -1176 L1217 -1175 L1218 -1174 L1219 -1173 L1220 -1172 L1221 -1171 L1223 -1170 L1224 -1169 L1225 -1168 L1226 -1167 L1227 -1166 L1228 -1165 L1229 -1164 L1230 -1163 L1231 -1162 L1232 -1161 L1233 -1160 L1234 -1159 L1235 -1158 L1236 -1158 L1237 -1157 L1238 -1156 L1239 -1155 L1240 -1154 L1242 -1153 L1243 -1152 L1244 -1151 L1245 -1150 L1246 -1149 L1247 -1148 L1248 -1147 L1249 -1146 L1250 -1145 L1251 -1145 L1253 -1144 L1254 -1143 L1255 -1143 L1257 -1142 L1258 -1142 L1259 -1141 L1261 -1140 L1262 -1140 L1263 -1139 L1264 -1139 L1266 -1138 L1267 -1137 L1268 -1137 L1270 -1136 L1271 -1135 L1272 -1135 L1273 -1134 L1275 -1134 L1276 -1133 L1277 -1132 L1279 -1132 L1280 -1131 L1281 -1130 L1282 -1130 L1284 -1129 L1285 -1129 L1286 -1128 L1288 -1127 L1289 -1127 L1290 -1126 L1291 -1126 L1293 -1125 L1294 -1124 L1295 -1124 L1297 -1123 L1298 -1122 L1299 -1122 L1300 -1121 L1302 -1121 L1303 -1120 L1304 -1119 L1306 -1119 L1307 -1118 L1308 -1117 L1309 -1117 L1311 -1116 L1312 -1116 L1313 -1115 L1315 -1114 L1316 -1114 L1317 -1113 L1318 -1112 L1320 -1112 L1321 -1111 L1322 -1111 L1324 -1110 L1325 -1109 L1326 -1109 L1327 -1108 L1329 -1108 L1330 -1107 L1331 -1106 L1333 -1106 L1334 -1105 L1335 -1104 L1336 -1104 L1338 -1103 L1339 -1103 L1340 -1102 L1342 -1101 L1343 -1101 L1344 -1100 L1345 -1099 L1347 -1099 L1348 -1098 L1349 -1098 L1351 -1097 L1352 -1096 L1353 -1096 L1354 -1095 L1356 -1094 L1357 -1094 L1358 -1093 L1360 -1093 L1361 -1092 L1362 -1091 L1363 -1091 L1365 -1090 L1366 -1090 L1368 -1090 L1369 -1089 L1370 -1089 L1372 -1089 L1373 -1088 L1375 -1088 L1376 -1088 L1377 -1087 L1379 -1087 L1380 -1087 L1381 -1086 L1383 -1086 L1384 -1085 L1386 -1085 L1387 -1085 L1388 -1084 L1390 -1084 L1391 -1084 L1393 -1083 L1394 -1083 L1395 -1083 L1397 -1082 L1398 -1082 L1399 -1082 L1401 -1081 L1402 -1081 L1404 -1081 L1405 -1080 L1406 -1080 L1408 -1079 L1409 -1079 L1411 -1079 L1412 -1078 L1413 -1078 L1415 -1078 L1416 -1077 L1417 -1077 L1419 -1077 L1420 -1076 L1422 -1076 L1423 -1076 L1424 -1075 L1426 -1075 L1427 -1075 L1429 -1074 L1430 -1074 L1431 -1073 L1433 -1073 L1434 -1073 L1435 -1072 L1437 -1072 L1438 -1072 L1440 -1071 L1441 -1071 L1442 -1071 L1444 -1070 L1445 -1070 L1447 -1070 L1448 -1069 L1449 -1069 L1451 -1069 L1452 -1068 L1454 -1068 L1455 -1068 L1456 -1068 L1458 -1067 L1459 -1067 L1460 -1067 L1462 -1066 L1463 -1066 L1465 -1066 L1466 -1065 L1467 -1065 L1469 -1065 L1470 -1064 L1472 -1064 L1473 -1064 L1474 -1063 L1476 -1063 L1477 -1063 L1479 -1063 L1480 -1062 L1481 -1062 L1483 -1062 L1484 -1061 L1486 -1061 L1487 -1061 L1488 -1060 L1490 -1061 L1491 -1061 L1493 -1061 L1494 -1061 L1495 -1062 L1497 -1062 L1498 -1062 L1500 -1062 L1501 -1063 L1502 -1063 L1504 -1063 L1505 -1063 L1507 -1064 L1508 -1064 L1509 -1064 L1511 -1064 L1512 -1065 L1513 -1065 L1514 -1066 L1516 -1067 L1517 -1068 L1518 -1069 L1519 -1070 L1520 -1071 L1521 -1072 L1522 -1073 L1523 -1074 L1524 -1075 L1525 -1076 L1526 -1077 L1527 -1078 L1528 -1079 L1529 -1080 L1530 -1081 L1530 -1083 L1531 -1084 L1531 -1085 L1532 -1086 L1532 -1088 L1533 -1089 L1534 -1090 L1534 -1092 L1535 -1093 L1535 -1094 L1536 -1096 L1536 -1097 L1537 -1098 L1538 -1100 L1538 -1101 L1539 -1102 L1539 -1103 L1540 -1105 L1540 -1106 L1540 -1108 L1540 -1109 L1541 -1111 L1541 -1112 L1541 -1113 L1541 -1115 L1542 -1116 L1542 -1118 L1542 -1119 L1542 -1120 L1542 -1122 L1543 -1123 L1543 -1125 L1543 -1126 L1543 -1127 L1544 -1129 L1544 -1130 L1544 -1132 L1544 -1133 L1545 -1134 L1545 -1136 L1545 -1137 L1545 -1139 L1546 -1140 L1546 -1141 L1546 -1143 L1546 -1144 L1547 -1146 L1547 -1147 L1547 -1149 L1547 -1150 L1548 -1151 L1548 -1153 L1548 -1154 L1548 -1156 L1548 -1157 L1549 -1158 L1549 -1160 L1549 -1161 L1549 -1163 L1550 -1164 L1550 -1165 L1550 -1167 L1550 -1168 L1551 -1170 L1551 -1171 L1551 -1172 L1551 -1174 L1552 -1175 L1552 -1177 L1552 -1178 L1552 -1180 L1553 -1181 L1553 -1182 L1553 -1184 L1553 -1185 L1554 -1187 L1554 -1188 L1554 -1189 L1554 -1191 L1555 -1192 L1555 -1194 L1555 -1195 L1555 -1196 L1555 -1198 L1555 -1199 L1555 -1201 L1555 -1202 L1555 -1204 L1555 -1205 L1555 -1206 L1555 -1208 L1555 -1209 L1555 -1211 L1555 -1212 L1555 -1214 L1555 -1215 L1555 -1216 L1555 -1218 L1555 -1219 L1555 -1221 L1555 -1222 L1555 -1224 L1555 -1225 L1555 -1226 L1555 -1228 L1555 -1229 L1555 -1231 L1555 -1232 L1555 -1234 L1555 -1235 L1555 -1236 L1555 -1238 L1555 -1239 L1554 -1241 L1554 -1242 L1554 -1244 L1554 -1245 L1553 -1246 L1553 -1248 L1553 -1249 L1553 -1251 L1552 -1252 L1552 -1253 L1552 -1255 L1552 -1256 L1551 -1258 L1551 -1259 L1551 -1260 L1551 -1262 L1550 -1263 L1550 -1265 L1550 -1266 L1550 -1267 L1549 -1266 L1549 -1265 L1548 -1264 L1547 -1263 L1546 -1262 L1546 -1260 L1545 -1259 L1544 -1258 L1544 -1256 L1543 -1255 L1543 -1254 L1542 -1252 L1542 -1251 L1541 -1250 L1541 -1248 L1540 -1247 L1539 -1246 L1539 -1244 L1538 -1243 L1538 -1242 L1537 -1240 L1537 -1239 L1536 -1238 L1536 -1237 L1536 -1235 L1535 -1234 L1535 -1232 L1535 -1231 L1535 -1229 L1535 -1228 L1535 -1227 L1535 -1225 L1534 -1224 L1534 -1222 L1534 -1221 L1534 -1219 L1534 -1218 L1534 -1217 L1534 -1215 L1534 -1214 L1533 -1212 L1533 -1211 L1533 -1209 L1533 -1208 L1533 -1207 L1533 -1205 L1533 -1204 L1533 -1202 L1532 -1201 L1532 -1200 L1532 -1198 L1532 -1197 L1532 -1195 L1532 -1194 L1532 -1192 L1531 -1191 L1531 -1190 L1531 -1188 L1531 -1187 L1531 -1185 L1531 -1184 L1531 -1182 L1531 -1181 L1530 -1180 L1530 -1178 L1530 -1177 L1530 -1175 L1530 -1174 L1530 -1172 L1530 -1171 L1530 -1170 L1530 -1168 L1530 -1167 L1530 -1165 L1530 -1164 L1530 -1162 L1530 -1161 L1530 -1160 L1530 -1158 L1530 -1157 L1530 -1155 L1530 -1154 L1530 -1152 L1530 -1151 L1530 -1150 L1530 -1148 L1530 -1147 L1530 -1145 L1530 -1144 L1530 -1142 L1530 -1141 L1530 -1140 L1530 -1138 L1530 -1137 L1530 -1135 L1530 -1134 L1530 -1132 L1530 -1131 L1530 -1130 L1530 -1128 L1530 -1127 L1530 -1125 L1530 -1124 L1530 -1122 L1530 -1121 L1530 -1120 L1530 -1118 L1530 -1117 L1530 -1115 L1530 -1114 L1530 -1112 L1530 -1111 L1530 -1110 L1530 -1108 L1530 -1107 L1530 -1105 L1530 -1104 L1530 -1102 L1530 -1101 L1530 -1100 L1530 -1098 L1530 -1097 L1530 -1095 L1530 -1094 L1530 -1092 L1530 -1091 L1530 -1090 L1530 -1088 L1530 -1087 L1530 -1085 L1530 -1084 L1530 -1082 L1530 -1081 L1530 -1080 L1530 -1078 L1530 -1077 L1530 -1075 L1530 -1074 L1530 -1072 L1531 -1071 L1531 -1070 L1532 -1069 L1532 -1067 L1533 -1066 L1533 -1065 L1534 -1063 L1534 -1062 L1535 -1061 L1535 -1059 L1536 -1058 L1536 -1057 L1537 -1055 L1537 -1054 L1538 -1053 L1538 -1051 L1539 -1050 L1540 -1049 L1540 -1047 L1541 -1046 L1541 -1045 L1542 -1043 L1542 -1042 L1543 -1041 L1543 -1039 L1544 -1038 L1544 -1037 L1545 -1036 L1546 -1034 L1547 -1033 L1548 -1032 L1549 -1031 L1549 -1030 L1550 -1029 L1551 -1027 L1552 -1026 L1553 -1025 L1554 -1024 L1554 -1023 L1555 -1022 L1556 -1020 L1557 -1019 L1558 -1018 L1559 -1017 L1560 -1017 L1561 -1017 L1563 -1017 L1564 -1017 L1566 -1017 L1567 -1017 L1569 -1017 L1570 -1017 L1571 -1017 L1573 -1017 L1574 -1017 L1576 -1016 L1577 -1016 L1579 -1016 L1580 -1016 L1581 -1016 L1583 -1016 L1584 -1016 L1586 -1016 L1587 -1016 L1589 -1016 L1590 -1016 L1591 -1016 L1593 -1016 L1594 -1016 L1596 -1016 L1597 -1016 L1599 -1016 L1600 -1016 L1601 -1016 L1603 -1016 L1604 -1016 L1606 -1016 L1607 -1016 L1609 -1015 L1610 -1015 L1611 -1015 L1613 -1015 L1614 -1015 L1616 -1015 L1617 -1015 L1619 -1015 L1620 -1015 L1621 -1015 L1623 -1015 L1624 -1016 L1626 -1016 L1627 -1016 L1628 -1017 L1630 -1017 L1631 -1018 L1632 -1018 L1634 -1019 L1635 -1019 L1636 -1019 L1638 -1020 L1639 -1020 L1640 -1021 L1642 -1021 L1643 -1022 L1645 -1022 L1646 -1023 L1647 -1023 L1649 -1023 L1650 -1024 L1651 -1024 L1653 -1025 L1654 -1025 L1655 -1026 L1657 -1026 L1658 -1026 L1660 -1027 L1661 -1027 L1662 -1028 L1664 -1028 L1665 -1029 L1666 -1029 L1668 -1030 L1669 -1030 L1670 -1030 L1672 -1031 L1673 -1031 L1674 -1032 L1676 -1032 L1677 -1033 L1679 -1033 L1680 -1034 L1681 -1034 L1683 -1034 L1684 -1035 L1685 -1035 L1687 -1036 L1688 -1036 L1689 -1037 L1691 -1037 L1692 -1037 L1693 -1038 L1695 -1038 L1696 -1039 L1698 -1039 L1699 -1040 L1700 -1041 L1701 -1041 L1703 -1042 L1704 -1043 L1705 -1043 L1706 -1044 L1707 -1045 L1709 -1046 L1710 -1046 L1711 -1047 L1712 -1048 L1714 -1048 L1715 -1049 L1716 -1050 L1717 -1051 L1719 -1051 L1720 -1052 L1721 -1053 L1722 -1053 L1724 -1054 L1725 -1055 L1726 -1056 L1727 -1056 L1729 -1057 L1730 -1058 L1731 -1058 L1732 -1059 L1734 -1060 L1735 -1061 L1736 -1061 L1737 -1062 L1738 -1063 L1740 -1063 L1741 -1064 L1742 -1065 L1743 -1066 L1745 -1066 L1746 -1067 L1747 -1068 L1748 -1068 L1750 -1069 L1751 -1070 L1752 -1070 L1753 -1071 L1755 -1072 L1756 -1073 L1757 -1073 L1758 -1074 L1759 -1075 L1760 -1076 L1761 -1078 L1761 -1079 L1762 -1080 L1763 -1081 L1764 -1082 L1765 -1084 L1765 -1085 L1766 -1086 L1767 -1087 L1768 -1088 L1768 -1090 L1769 -1091 L1770 -1092 L1771 -1093 L1772 -1094 L1772 -1096 L1773 -1097 L1774 -1098 L1775 -1099 L1775 -1100 L1776 -1102 L1777 -1103 L1778 -1104 L1779 -1105 L1779 -1106 L1780 -1108 L1781 -1109 L1782 -1110 L1782 -1111 L1783 -1112 L1784 -1114 L1784 -1115 L1784 -1116 L1784 -1118 L1784 -1119 L1784 -1121 L1784 -1122 L1784 -1124 L1785 -1125 L1785 -1126 L1785 -1128 L1785 -1129 L1785 -1131 L1785 -1132 L1785 -1134 L1785 -1135 L1785 -1136 L1785 -1138 L1785 -1139 L1785 -1141 L1785 -1142 L1785 -1144 L1785 -1142 L1785 -1141 L1785 -1139 L1785 -1138 L1785 -1136 L1785 -1135 L1784 -1134 L1784 -1132 L1784 -1131 L1784 -1129 L1783 -1128 L1783 -1126 L1783 -1125 L1783 -1124 L1783 -1122 L1782 -1121 L1782 -1119 L1782 -1118 L1782 -1117 L1782 -1115 L1781 -1114 L1781 -1112 L1781 -1111 L1781 -1110 L1780 -1108 L1780 -1107 L1780 -1105 L1780 -1104 L1780 -1102 L1780 -1101 L1780 -1100 L1780 -1098 L1780 -1097 L1780 -1095 L1780 -1094 L1780 -1092 L1780 -1091 L1780 -1090 L1781 -1088 L1781 -1087 L1781 -1085 L1781 -1084 L1781 -1083 L1782 -1081 L1782 -1080 L1782 -1078 L1782 -1077 L1782 -1075 L1782 -1074 L1783 -1073 L1783 -1071 L1783 -1070 L1783 -1068 L1783 -1067 L1784 -1066 L1784 -1064 L1784 -1063 L1784 -1061 L1784 -1060 L1785 -1058 L1785 -1057 L1785 -1056 L1786 -1054 L1786 -1053 L1786 -1052 L1787 -1050 L1787 -1049 L1788 -1047 L1788 -1046 L1789 -1045 L1789 -1043 L1789 -1042 L1790 -1041 L1790 -1039 L1791 -1038 L1791 -1037 L1792 -1035 L1792 -1034 L1793 -1033 L1793 -1031 L1793 -1030 L1794 -1028 L1794 -1027 L1796 -1027 L1797 -1026 L1798 -1026 L1800 -1025 L1801 -1025 L1803 -1025 L1804 -1024 L1805 -1024 L1807 -1024 L1808 -1024 L1810 -1023 L1811 -1023 L1812 -1023 L1814 -1022 L1815 -1022 L1816 -1022 L1818 -1021 L1819 -1021 L1821 -1021 L1822 -1021 L1823 -1020 L1825 -1020 L1826 -1020 L1828 -1020 L1829 -1020 L1831 -1020 L1832 -1020 L1833 -1020 L1835 -1020 L1836 -1020 L1838 -1021 L1839 -1021 L1841 -1021 L1842 -1021 L1843 -1021 L1845 -1021 L1846 -1022 L1848 -1022 L1849 -1022 L1851 -1022 L1852 -1022 L1853 -1022 L1855 -1023 L1856 -1023 L1858 -1023 L1859 -1023 L1860 -1023 L1862 -1023 L1863 -1024 L1865 -1024 L1866 -1024 L1868 -1024 L1869 -1024 L1870 -1024 L1872 -1025 L1873 -1025 L1875 -1025 L1876 -1026 L1877 -1026 L1879 -1027 L1880 -1027 L1881 -1028 L1883 -1028 L1884 -1029 L1885 -1029 L1887 -1030 L1888 -1030 L1889 -1031 L1891 -1031 L1892 -1032 L1893 -1032 L1895 -1033 L1896 -1033 L1897 -1034 L1899 -1034 L1900 -1035 L1901 -1035 L1903 -1035 L1903 -1036 L1904 -1037 " fill="none" stroke="#cb1b02ff" stroke-width="10" pen="PEN"/>
<path d="M155 357 L157 360 L159 363 L161 367 L163 370 L165 372 L168 375 L170 378 L173 381 L175 383 L178 386 L181 388 L184 390 L187 392 L191 394 L194 396 L197 397 L201 399 L204 400 L207 402 L211 403 L214 405 L217 406 L221 408 L224 409 L228 411 L231 412 L235 413 L238 415 L242 416 L245 417 " fill="none" stroke="#3bc266ff" stroke-width="26" pen="PEN"/>
<path d="M36 528 L39 529 L43 530 L46 531 L50 532 L53 534 L57 535 L60 536 L64 538 L67 539 L71 541 L74 542 L77 544 L81 545 L84 546 " fill="none" stroke="#ab8a3fff" stroke-width="26" pen="PEN"/>
<path d="M403 302 L406 303 L410 305 L413 307 L416 308 L420 310 L423 311 L427 312 L430 314 L434 315 L437 316 L441 314 L443 312 L445 309 L447 305 L448 302 L449 298 L450 295 L450 291 L450 287 L451 284 L451 280 L451 276 L451 272 L451 269 L451 265 " fill="none" stroke="#dc7e77ff" stroke-width="26" pen="PEN"/>
<path d="M506 239 L509 241 L512 243 L515 245 L518 247 L521 249 L524 251 L527 253 L530 255 L533 258 L536 260 L539 262 L542 264 L545 266 L548 268 L551 271 L554 272 L557 275 L560 277 L563 279 L566 280 L569 282 L573 284 L576 286 L579 288 L582 290 L585 292 L588 294 L591 296 L594 298 L597 300 L600 301 L604 303 L607 305 L610 307 L613 309 L616 310 L620 312 L623 313 " fill="none" stroke="#2e4065ff" stroke-width="26" pen="PENCIL"/>
<path d="M482 225 L479 227 L477 230 L474 232 L471 235 L469 238 L467 240 L464 243 L462 246 L459 248 L457 251 L454 254 L452 256 L449 259 L447 262 L445 265 L443 268 L441 271 L439 274 L436 277 L435 280 L434 284 L433 287 L432 291 L431 294 L432 298 L435 300 L438 302 L442 303 L445 304 L449 306 L452 306 L456 307 L459 307 L463 308 L467 308 L470 309 L474 310 L477 311 L481 311 L485 311 L488 310 L491 307 L494 305 L496 302 L498 299 L500 296 L501 292 L501 289 L500 292 L499 296 L498 299 L498 303 L497 307 L500 309 L502 312 L506 313 L509 314 L513 315 L516 315 L520 316 L524 316 L527 317 L531 318 L534 318 L538 319 L542 319 L545 320 L549 320 L553 321 L556 321 L560 321 L563 322 L567 322 L571 322 L574 322 L578 323 L582 323 L585 323 L589 323 L593 324 L596 324 L600 324 L604 325 L607 325 L611 325 L614 326 L618 326 L622 327 L625 327 L629 327 L633 328 L636 328 L640 329 L643 329 L647 329 L651 330 L654 330 L658 330 L657 334 L656 337 " fill="none" stroke="#7fcb78ff" stroke-width="26" pen="PENCIL"/>
</svg>